<svg width="16" height="24" viewBox="0 0 16 24" fill="none" xmlns="http://www.w3.org/2000/svg">
<path d="M15.6554 9.55077C15.1494 8.59677 14.1654 8.00377 13.0864 8.00377L9.25339 8.00077L10.4584 2.77377C10.7674 1.69577 10.3194 0.601772 9.39439 0.173772C8.51439 -0.233228 7.52939 0.087772 6.92139 0.999772L0.502394 11.4608C-0.103606 12.3548 -0.165606 13.5028 0.339394 14.4568C0.844394 15.4108 1.82939 16.0038 2.90939 16.0038H6.73939L5.53539 21.2298C5.22639 22.3088 5.67439 23.4018 6.59939 23.8298C6.85239 23.9468 7.11439 24.0038 7.37239 24.0038C8.01439 24.0038 8.63939 23.6538 9.07139 23.0038L15.4914 12.5468C16.0974 11.6528 16.1594 10.5048 15.6544 9.55177L15.6554 9.55077Z" fill="url(#paint0_linear_3927_1203)"/>
<defs>
<linearGradient id="paint0_linear_3927_1203" x1="11.3289" y1="7.50118" x2="4.12353" y2="12.0021" gradientUnits="userSpaceOnUse">
<stop stop-color="#FFDD00"/>
<stop offset="1" stop-color="#9000F0"/>
</linearGradient>
</defs>
</svg>
